HIERARCHY
ROOT pelvis
{
	OFFSET 0.003123 -0.351407 0.012037
	CHANNELS 6 Xposition Yposition Zposition Zrotation Yrotation Xrotation 
	JOINT left_hip
	{
		OFFSET 0.058189 -0.092763 -0.026001
		CHANNELS 3 Zrotation Yrotation Xrotation
		JOINT left_knee
		{
			OFFSET 0.054695 -0.378753 -0.009396
			CHANNELS 3 Zrotation Yrotation Xrotation
			JOINT left_ankle
			{
				OFFSET -0.043453 -0.403059 -0.031876
				CHANNELS 3 Zrotation Yrotation Xrotation
				JOINT left_foot
				{
					OFFSET 0.047257 -0.057997 0.118216
					CHANNELS 3 Zrotation Yrotation Xrotation
					End Site
					{
						OFFSET 0.000000 0.000000 0.000000
					}
				}
			}
		}
	}
	JOINT right_hip
	{
		OFFSET -0.063267 -0.103908 -0.021250
		CHANNELS 3 Zrotation Yrotation Xrotation
		JOINT right_knee
		{
			OFFSET -0.044210 -0.362380 -0.016824
			CHANNELS 3 Zrotation Yrotation Xrotation
			JOINT right_ankle
			{
				OFFSET 0.015417 -0.410728 -0.020192
				CHANNELS 3 Zrotation Yrotation Xrotation
				JOINT right_foot
				{
					OFFSET -0.038812 -0.058328 0.119049
					CHANNELS 3 Zrotation Yrotation Xrotation
					End Site
					{
						OFFSET 0.000000 0.000000 0.000000
					}
				}
			}
		}
	}
	JOINT spine_1
	{
		OFFSET -0.002763 0.109891 -0.027618
		CHANNELS 3 Zrotation Yrotation Xrotation
		JOINT spine_2
		{
			OFFSET 0.009448 0.131853 -0.005940
			CHANNELS 3 Zrotation Yrotation Xrotation
			JOINT spine_3
			{
				OFFSET -0.011330 0.052235 0.028447
				CHANNELS 3 Zrotation Yrotation Xrotation
				JOINT neck
				{
					OFFSET -0.012164 0.165167 -0.031615
					CHANNELS 3 Zrotation Yrotation Xrotation
					JOINT head
					{
						OFFSET 0.024783 0.160452 0.020737
						CHANNELS 3 Zrotation Yrotation Xrotation
						End Site
						{
							OFFSET 0.000000 0.000000 0.000000
						}
					}
				}
				JOINT left_collar
				{
					OFFSET 0.046364 0.084944 -0.007220
					CHANNELS 3 Zrotation Yrotation Xrotation
					JOINT left_shoulder
					{
						OFFSET 0.119239 0.057728 -0.015461
						CHANNELS 3 Zrotation Yrotation Xrotation
						JOINT left_elbow
						{
							OFFSET 0.254123 -0.072151 -0.042459
							CHANNELS 3 Zrotation Yrotation Xrotation
							JOINT left_wrist
							{
								OFFSET 0.251987 0.023221 -0.002472
								CHANNELS 3 Zrotation Yrotation Xrotation
								JOINT left_index_1
								{
									OFFSET 0.101902 -0.008688 0.019351
									CHANNELS 3 Zrotation Yrotation Xrotation
									JOINT left_index_2
									{
										OFFSET 0.030149 -0.011154 0.001151
										CHANNELS 3 Zrotation Yrotation Xrotation
										JOINT left_index_3
										{
											OFFSET 0.006504 -0.021577 -0.002433
											CHANNELS 3 Zrotation Yrotation Xrotation
											End Site
											{
												OFFSET 0.000000 0.000000 0.000000
											}
										}
									}
								}
								JOINT left_middle_1
								{
									OFFSET 0.109398 -0.006328 -0.003981
									CHANNELS 3 Zrotation Yrotation Xrotation
									JOINT left_middle_2
									{
										OFFSET 0.026472 -0.015218 -0.004641
										CHANNELS 3 Zrotation Yrotation Xrotation
										JOINT left_middle_3
										{
											OFFSET 0.005022 -0.023347 -0.001911
											CHANNELS 3 Zrotation Yrotation Xrotation
											End Site
											{
												OFFSET 0.000000 0.000000 0.000000
											}
										}
									}
								}
								JOINT left_pinky_1
								{
									OFFSET 0.084047 -0.014539 -0.043750
									CHANNELS 3 Zrotation Yrotation Xrotation
									JOINT left_pinky_2
									{
										OFFSET 0.012124 -0.014448 -0.005375
										CHANNELS 3 Zrotation Yrotation Xrotation
										JOINT left_pinky_3
										{
											OFFSET 0.003798 -0.018853 0.000167
											CHANNELS 3 Zrotation Yrotation Xrotation
											End Site
											{
												OFFSET 0.000000 0.000000 0.000000
											}
										}
									}
								}
								JOINT left_ring_1
								{
									OFFSET 0.097444 -0.009268 -0.027345
									CHANNELS 3 Zrotation Yrotation Xrotation
									JOINT left_ring_2
									{
										OFFSET 0.023561 -0.016057 -0.001895
										CHANNELS 3 Zrotation Yrotation Xrotation
										JOINT left_ring_3
										{
											OFFSET 0.004257 -0.023548 0.000814
											CHANNELS 3 Zrotation Yrotation Xrotation
											End Site
											{
												OFFSET 0.000000 0.000000 0.000000
											}
										}
									}
								}
								JOINT left_thumb_1
								{
									OFFSET 0.040636 -0.017977 0.025611
									CHANNELS 3 Zrotation Yrotation Xrotation
									JOINT left_thumb_2
									{
										OFFSET 0.021637 -0.017639 0.011623
										CHANNELS 3 Zrotation Yrotation Xrotation
										JOINT left_thumb_3
										{
											OFFSET 0.024002 -0.008356 0.006548
											CHANNELS 3 Zrotation Yrotation Xrotation
											End Site
											{
												OFFSET 0.000000 0.000000 0.000000
											}
										}
									}
								}
							}
						}
					}
				}
				JOINT right_collar
				{
					OFFSET -0.047695 0.084339 -0.013400
					CHANNELS 3 Zrotation Yrotation Xrotation
					JOINT right_shoulder
					{
						OFFSET -0.102578 0.053524 -0.012669
						CHANNELS 3 Zrotation Yrotation Xrotation
						JOINT right_elbow
						{
							OFFSET -0.271150 -0.036492 -0.026467
							CHANNELS 3 Zrotation Yrotation Xrotation
							JOINT right_wrist
							{
								OFFSET -0.249267 -0.004533 -0.015325
								CHANNELS 3 Zrotation Yrotation Xrotation
								JOINT right_index_1
								{
									OFFSET -0.099881 -0.011783 0.019600
									CHANNELS 3 Zrotation Yrotation Xrotation
									JOINT right_index_2
									{
										OFFSET -0.030148 -0.011154 0.001151
										CHANNELS 3 Zrotation Yrotation Xrotation
										JOINT right_index_3
										{
											OFFSET -0.006505 -0.021577 -0.002432
											CHANNELS 3 Zrotation Yrotation Xrotation
											End Site
											{
												OFFSET 0.000000 0.000000 0.000000
											}
										}
									}
								}
								JOINT right_middle_1
								{
									OFFSET -0.107376 -0.009422 -0.003734
									CHANNELS 3 Zrotation Yrotation Xrotation
									JOINT right_middle_2
									{
										OFFSET -0.026472 -0.015218 -0.004641
										CHANNELS 3 Zrotation Yrotation Xrotation
										JOINT right_middle_3
										{
											OFFSET -0.005022 -0.023347 -0.001911
											CHANNELS 3 Zrotation Yrotation Xrotation
											End Site
											{
												OFFSET 0.000000 0.000000 0.000000
											}
										}
									}
								}
								JOINT right_pinky_1
								{
									OFFSET -0.082027 -0.017634 -0.043503
									CHANNELS 3 Zrotation Yrotation Xrotation
									JOINT right_pinky_2
									{
										OFFSET -0.012123 -0.014448 -0.005374
										CHANNELS 3 Zrotation Yrotation Xrotation
										JOINT right_pinky_3
										{
											OFFSET -0.003798 -0.018852 0.000167
											CHANNELS 3 Zrotation Yrotation Xrotation
											End Site
											{
												OFFSET 0.000000 0.000000 0.000000
											}
										}
									}
								}
								JOINT right_ring_1
								{
									OFFSET -0.095423 -0.012362 -0.027099
									CHANNELS 3 Zrotation Yrotation Xrotation
									JOINT right_ring_2
									{
										OFFSET -0.023561 -0.016057 -0.001895
										CHANNELS 3 Zrotation Yrotation Xrotation
										JOINT right_ring_3
										{
											OFFSET -0.004257 -0.023548 0.000816
											CHANNELS 3 Zrotation Yrotation Xrotation
											End Site
											{
												OFFSET 0.000000 0.000000 0.000000
											}
										}
									}
								}
								JOINT right_thumb_1
								{
									OFFSET -0.038613 -0.021074 0.025861
									CHANNELS 3 Zrotation Yrotation Xrotation
									JOINT right_thumb_2
									{
										OFFSET -0.021636 -0.017639 0.011623
										CHANNELS 3 Zrotation Yrotation Xrotation
										JOINT right_thumb_3
										{
											OFFSET -0.024004 -0.008353 0.006547
											CHANNELS 3 Zrotation Yrotation Xrotation
											End Site
											{
												OFFSET 0.000000 0.000000 0.000000
											}
										}
									}
								}
							}
						}
					}
				}
			}
		}
	}
}
MOTION
Frames: 4
Frame Time: 0.050000
0.000027 0.988163 0.000587 8.774245 -3.057802 -12.071867 -2.116445 1.379974 7.998351 7.544391 -2.886178 12.684871 -5.633968 -5.679120 6.607831 0.000000 0.000000 0.000000 -1.605358 -0.133730 1.913544 -0.658997 1.062225 20.405999 -12.283636 -22.087183 -2.499025 0.000000 0.000000 0.000000 1.453409 -1.670183 23.987348 -7.723955 -0.858420 -17.522958 5.600044 -1.033508 9.829351 2.624807 1.179688 -9.297990 0.000000 0.000000 0.000000 9.817647 7.494315 -2.125125 -60.273718 -50.923001 5.514722 130.610401 -58.693990 -87.376856 14.346276 -5.734829 -40.209239 3.586757 0.727201 0.234953 12.392434 -2.002892 -16.136565 0.000000 0.000000 0.000000 -6.072511 -13.953710 -6.395540 14.088374 -1.274919 -14.515845 0.000000 0.000000 0.000000 11.891566 -15.833703 -23.371192 18.197240 0.286971 2.084708 0.000000 0.000000 0.000000 -3.202803 -14.815782 -8.957787 23.089154 1.227785 -10.782697 0.000000 0.000000 0.000000 32.038053 14.002077 -5.302372 -24.537262 -3.592332 6.174579 0.000000 0.000000 0.000000 -11.449328 1.849069 2.259394 70.222890 38.199069 11.282003 -85.188623 71.986530 -66.818583 -16.254607 0.462898 -20.883118 2.388027 -3.877526 0.934813 -4.830922 1.197493 -8.737209 0.000000 0.000000 0.000000 11.698694 10.021920 -5.074918 -6.749451 0.540901 -6.962387 0.000000 0.000000 0.000000 -12.674450 13.885947 -18.508862 -11.399901 -0.231319 0.763999 0.000000 0.000000 0.000000 6.315085 10.975980 -6.384303 -14.968501 -0.422816 -8.767074 0.000000 0.000000 0.000000 -20.244099 -11.795715 -2.859090 15.116623 0.385958 3.540499 0.000000 0.000000 0.000000 
0.000027 0.988163 0.000587 8.774245 -3.057802 -12.071867 -2.116445 1.379974 7.998351 7.544391 -2.886178 12.684871 -5.633968 -5.679120 6.607831 0.000000 0.000000 0.000000 -1.605358 -0.133730 1.913544 -0.658997 1.062225 20.405999 -12.283636 -22.087183 -2.499025 0.000000 0.000000 0.000000 1.453409 -1.670183 23.987348 -7.723955 -0.858420 -17.522958 5.600044 -1.033508 9.829351 2.624807 1.179688 -9.297990 0.000000 0.000000 0.000000 9.817647 7.494315 -2.125125 -60.273718 -50.923001 5.514722 130.610401 -58.693990 -87.376856 14.346276 -5.734829 -40.209239 3.586757 0.727201 0.234953 12.392434 -2.002892 -16.136565 0.000000 0.000000 0.000000 -6.072511 -13.953710 -6.395540 14.088374 -1.274919 -14.515845 0.000000 0.000000 0.000000 11.891566 -15.833703 -23.371192 18.197240 0.286971 2.084708 0.000000 0.000000 0.000000 -3.202803 -14.815782 -8.957787 23.089154 1.227785 -10.782697 0.000000 0.000000 0.000000 32.038053 14.002077 -5.302372 -24.537262 -3.592332 6.174579 0.000000 0.000000 0.000000 -11.449328 1.849069 2.259394 70.222890 38.199069 11.282003 -85.188623 71.986530 -66.818583 -16.254607 0.462898 -20.883118 2.388027 -3.877526 0.934813 -4.830922 1.197493 -8.737209 0.000000 0.000000 0.000000 11.698694 10.021920 -5.074918 -6.749451 0.540901 -6.962387 0.000000 0.000000 0.000000 -12.674450 13.885947 -18.508862 -11.399901 -0.231319 0.763999 0.000000 0.000000 0.000000 6.315085 10.975980 -6.384303 -14.968501 -0.422816 -8.767074 0.000000 0.000000 0.000000 -20.244099 -11.795715 -2.859090 15.116623 0.385958 3.540499 0.000000 0.000000 0.000000 
-0.005391 0.988163 0.003227 8.829715 -5.379568 -11.869075 -2.381921 1.496273 8.471334 8.020210 -2.948107 12.587761 -5.779597 -6.049902 6.780367 0.000000 0.000000 0.000000 -1.932463 -0.020599 1.069473 -1.075333 1.165691 19.347931 -11.016408 -19.916348 -0.899275 0.000000 0.000000 0.000000 1.807295 -1.748900 25.025894 -7.960226 -0.826130 -17.278096 5.111974 -2.737517 9.302787 2.259449 1.357857 -10.328446 0.000000 0.000000 0.000000 10.405954 8.209092 -2.607514 -62.695769 -50.778228 7.723126 131.364675 -56.095844 -85.074335 13.442727 -6.564269 -38.444444 2.394453 0.891610 0.255621 17.449262 -1.501536 -18.179234 0.000000 0.000000 0.000000 -4.976348 -14.702068 -6.944473 14.832259 -0.882811 -12.750729 0.000000 0.000000 0.000000 14.032452 -15.568020 -23.397957 15.740367 0.398571 1.813862 0.000000 0.000000 0.000000 -2.864510 -14.792798 -9.154902 23.853558 1.414676 -10.327026 0.000000 0.000000 0.000000 31.312690 13.414968 -5.795167 -23.133577 -3.254070 5.603401 0.000000 0.000000 0.000000 -13.743157 1.338436 2.649476 72.565589 36.654167 9.431494 -76.695568 79.119666 -66.563704 -12.484299 -3.324928 -18.656120 2.910192 -3.567090 0.949759 -7.640736 1.097611 -7.895408 0.000000 0.000000 0.000000 12.181281 7.944451 -4.513164 -8.740984 0.903610 -8.958244 0.000000 0.000000 0.000000 -13.183105 13.467183 -18.151430 -10.901473 -0.372758 1.443545 0.000000 0.000000 0.000000 5.817953 9.826805 -5.998192 -14.894894 -0.310180 -9.073548 0.000000 0.000000 0.000000 -19.825631 -11.627528 -2.510666 15.005882 0.303074 3.559591 0.000000 0.000000 0.000000 
-0.010927 0.987841 0.007187 8.873962 -7.748754 -11.200282 -2.550427 1.540223 8.564884 8.340901 -2.971831 12.465551 -5.709158 -6.105145 6.848065 0.000000 0.000000 0.000000 -2.189337 0.148153 -0.408942 -1.492825 1.276739 18.755796 -9.529835 -17.628731 0.635205 0.000000 0.000000 0.000000 2.059933 -1.762101 25.372673 -7.412839 -1.362747 -18.040517 4.002997 -3.375206 10.137632 2.394236 1.615721 -11.967830 0.000000 0.000000 0.000000 11.260505 9.156295 -3.075708 -65.447596 -50.802163 9.772619 132.864565 -54.032107 -84.282809 12.380625 -7.304884 -36.730986 3.064901 0.822541 0.216135 14.379001 -1.638970 -16.230838 0.000000 0.000000 0.000000 -4.575313 -13.429570 -6.600031 15.314704 -0.876161 -12.753676 0.000000 0.000000 0.000000 14.034285 -15.443076 -23.222296 18.713191 0.394744 2.700757 0.000000 0.000000 0.000000 -3.076704 -14.096535 -8.782857 24.766245 1.515869 -10.547388 0.000000 0.000000 0.000000 30.050132 13.332351 -5.625320 -21.544852 -2.261175 5.217925 0.000000 0.000000 0.000000 -15.557208 0.144033 2.673751 75.309012 34.992116 7.899078 -37.108478 85.177746 -35.057615 -9.499079 -7.643396 -15.787683 3.586889 -5.270312 1.439686 -4.660260 1.217651 -7.067607 0.000000 0.000000 0.000000 13.388768 7.359175 -4.509720 -6.337365 0.875282 -6.817979 0.000000 0.000000 0.000000 -11.340286 12.461628 -16.756042 -10.675699 0.223983 -1.402067 0.000000 0.000000 0.000000 7.202154 9.455918 -5.815094 -13.949119 -0.008874 -9.760425 0.000000 0.000000 0.000000 -19.103603 -10.334983 -3.086784 14.786383 -1.954882 4.197743 0.000000 0.000000 0.000000 
